<mxfile host="app.diagrams.net" modified="2021-08-21T10:54:19.967Z" agent="5.0 (Macintosh; Intel Mac OS X 10_15_7) AppleWebKit/605.1.15 (KHTML, like Gecko) Version/14.1.1 Safari/605.1.15" etag="mZed8vpKtJwteI35txCW" version="14.9.8" type="github">
  <diagram id="3sWpf7-lMyL4iv-0AXl7" name="第 1 页">
    <mxGraphModel dx="946" dy="501" grid="1" gridSize="10" guides="1" tooltips="1" connect="1" arrows="1" fold="1" page="1" pageScale="1" pageWidth="827" pageHeight="1169" math="0" shadow="0">
      <root>
        <mxCell id="0" />
        <mxCell id="1" parent="0" />
        <mxCell id="_f5LSM6xxXGirw2m_ek6-21" value="" style="group" vertex="1" connectable="0" parent="1">
          <mxGeometry x="110" y="160" width="750" height="470" as="geometry" />
        </mxCell>
        <mxCell id="_f5LSM6xxXGirw2m_ek6-1" value="会话1" style="rounded=0;whiteSpace=wrap;html=1;fontSize=16;fillColor=#dae8fc;strokeColor=#6c8ebf;" vertex="1" parent="_f5LSM6xxXGirw2m_ek6-21">
          <mxGeometry width="178.57142857142858" height="94" as="geometry" />
        </mxCell>
        <mxCell id="_f5LSM6xxXGirw2m_ek6-2" value="会话2" style="rounded=0;whiteSpace=wrap;html=1;fontSize=16;fillColor=#dae8fc;strokeColor=#6c8ebf;" vertex="1" parent="_f5LSM6xxXGirw2m_ek6-21">
          <mxGeometry x="178.57142857142858" width="196.42857142857144" height="94" as="geometry" />
        </mxCell>
        <mxCell id="_f5LSM6xxXGirw2m_ek6-3" value="会话3" style="rounded=0;whiteSpace=wrap;html=1;fontSize=16;fillColor=#dae8fc;strokeColor=#6c8ebf;" vertex="1" parent="_f5LSM6xxXGirw2m_ek6-21">
          <mxGeometry x="375" width="187.5" height="94" as="geometry" />
        </mxCell>
        <mxCell id="_f5LSM6xxXGirw2m_ek6-4" value="select * from t_test where b&amp;gt;=8 and b&amp;lt;9 for update;" style="rounded=0;whiteSpace=wrap;html=1;fontSize=16;align=center;fontFamily=Times New Roman;fillColor=#fff2cc;strokeColor=#d6b656;" vertex="1" parent="_f5LSM6xxXGirw2m_ek6-21">
          <mxGeometry y="94" width="178.57142857142858" height="94" as="geometry" />
        </mxCell>
        <mxCell id="_f5LSM6xxXGirw2m_ek6-5" value="" style="rounded=0;whiteSpace=wrap;html=1;fontSize=16;fontFamily=Times New Roman;" vertex="1" parent="_f5LSM6xxXGirw2m_ek6-21">
          <mxGeometry x="178.57142857142858" y="94" width="196.42857142857144" height="94" as="geometry" />
        </mxCell>
        <mxCell id="_f5LSM6xxXGirw2m_ek6-6" value="" style="rounded=0;whiteSpace=wrap;html=1;fontSize=16;fontFamily=Times New Roman;" vertex="1" parent="_f5LSM6xxXGirw2m_ek6-21">
          <mxGeometry x="375" y="94" width="187.5" height="94" as="geometry" />
        </mxCell>
        <mxCell id="_f5LSM6xxXGirw2m_ek6-7" value="" style="rounded=0;whiteSpace=wrap;html=1;fontSize=16;align=center;fontFamily=Times New Roman;" vertex="1" parent="_f5LSM6xxXGirw2m_ek6-21">
          <mxGeometry y="188" width="178.57142857142858" height="94" as="geometry" />
        </mxCell>
        <mxCell id="_f5LSM6xxXGirw2m_ek6-8" value="update t_test set a=100 where b = 8;&amp;nbsp;&lt;br&gt;（阻塞）" style="rounded=0;whiteSpace=wrap;html=1;fontSize=16;fontFamily=Times New Roman;fillColor=#f8cecc;strokeColor=#b85450;" vertex="1" parent="_f5LSM6xxXGirw2m_ek6-21">
          <mxGeometry x="178.57142857142858" y="188" width="196.42857142857144" height="94" as="geometry" />
        </mxCell>
        <mxCell id="_f5LSM6xxXGirw2m_ek6-9" value="" style="rounded=0;whiteSpace=wrap;html=1;fontSize=16;fontFamily=Times New Roman;" vertex="1" parent="_f5LSM6xxXGirw2m_ek6-21">
          <mxGeometry x="375" y="188" width="187.5" height="94" as="geometry" />
        </mxCell>
        <mxCell id="_f5LSM6xxXGirw2m_ek6-10" value="" style="rounded=0;whiteSpace=wrap;html=1;fontSize=16;align=center;fontFamily=Times New Roman;" vertex="1" parent="_f5LSM6xxXGirw2m_ek6-21">
          <mxGeometry y="282" width="178.57142857142858" height="94" as="geometry" />
        </mxCell>
        <mxCell id="_f5LSM6xxXGirw2m_ek6-11" value="" style="rounded=0;whiteSpace=wrap;html=1;fontSize=16;fontFamily=Times New Roman;" vertex="1" parent="_f5LSM6xxXGirw2m_ek6-21">
          <mxGeometry x="178.57142857142858" y="282" width="196.42857142857144" height="94" as="geometry" />
        </mxCell>
        <mxCell id="_f5LSM6xxXGirw2m_ek6-12" value="insert into t_test value(10,10,10);&lt;span style=&quot;color: rgb(51 , 51 , 51) ; font-family: &amp;#34;helvetica neue&amp;#34; , &amp;#34;helvetica&amp;#34; , &amp;#34;arial&amp;#34; , sans-serif ; font-size: 16px ; text-align: left&quot;&gt;&lt;br style=&quot;font-size: 16px&quot;&gt;&lt;/span&gt;&lt;span style=&quot;font-size: 16px&quot;&gt;（阻塞）&lt;br style=&quot;font-size: 16px&quot;&gt;&lt;/span&gt;" style="rounded=0;whiteSpace=wrap;html=1;fontSize=16;fontFamily=Times New Roman;align=center;fillColor=#f8cecc;strokeColor=#b85450;" vertex="1" parent="_f5LSM6xxXGirw2m_ek6-21">
          <mxGeometry x="375" y="282" width="187.5" height="94" as="geometry" />
        </mxCell>
        <mxCell id="_f5LSM6xxXGirw2m_ek6-13" value="会话4" style="rounded=0;whiteSpace=wrap;html=1;fontSize=16;fillColor=#dae8fc;strokeColor=#6c8ebf;" vertex="1" parent="_f5LSM6xxXGirw2m_ek6-21">
          <mxGeometry x="562.5" width="187.5" height="94" as="geometry" />
        </mxCell>
        <mxCell id="_f5LSM6xxXGirw2m_ek6-14" value="" style="rounded=0;whiteSpace=wrap;html=1;fontSize=16;fontFamily=Times New Roman;" vertex="1" parent="_f5LSM6xxXGirw2m_ek6-21">
          <mxGeometry x="562.5" y="94" width="187.5" height="94" as="geometry" />
        </mxCell>
        <mxCell id="_f5LSM6xxXGirw2m_ek6-15" value="" style="rounded=0;whiteSpace=wrap;html=1;fontSize=16;fontFamily=Times New Roman;" vertex="1" parent="_f5LSM6xxXGirw2m_ek6-21">
          <mxGeometry x="562.5" y="188" width="187.5" height="94" as="geometry" />
        </mxCell>
        <mxCell id="_f5LSM6xxXGirw2m_ek6-16" value="&lt;span style=&quot;font-size: 16px&quot;&gt;&lt;br style=&quot;font-size: 16px&quot;&gt;&lt;/span&gt;" style="rounded=0;whiteSpace=wrap;html=1;fontSize=16;fontFamily=Times New Roman;align=center;" vertex="1" parent="_f5LSM6xxXGirw2m_ek6-21">
          <mxGeometry x="562.5" y="282" width="187.5" height="94" as="geometry" />
        </mxCell>
        <mxCell id="_f5LSM6xxXGirw2m_ek6-17" value="" style="rounded=0;whiteSpace=wrap;html=1;fontSize=16;fontFamily=Times New Roman;" vertex="1" parent="_f5LSM6xxXGirw2m_ek6-21">
          <mxGeometry x="375" y="376" width="187.5" height="94" as="geometry" />
        </mxCell>
        <mxCell id="_f5LSM6xxXGirw2m_ek6-18" value="update t_test set a=100 where b = 16;&lt;span style=&quot;font-size: 16px&quot;&gt;&lt;br style=&quot;font-size: 16px&quot;&gt;（阻塞）&lt;br style=&quot;font-size: 16px&quot;&gt;&lt;/span&gt;" style="rounded=0;whiteSpace=wrap;html=1;fontSize=16;fontFamily=Times New Roman;align=center;fillColor=#f8cecc;strokeColor=#b85450;" vertex="1" parent="_f5LSM6xxXGirw2m_ek6-21">
          <mxGeometry x="562.5" y="376" width="187.5" height="94" as="geometry" />
        </mxCell>
        <mxCell id="_f5LSM6xxXGirw2m_ek6-19" value="" style="rounded=0;whiteSpace=wrap;html=1;fontSize=16;align=center;fontFamily=Times New Roman;" vertex="1" parent="_f5LSM6xxXGirw2m_ek6-21">
          <mxGeometry y="376" width="178.57142857142858" height="94" as="geometry" />
        </mxCell>
        <mxCell id="_f5LSM6xxXGirw2m_ek6-20" value="" style="rounded=0;whiteSpace=wrap;html=1;fontSize=16;fontFamily=Times New Roman;" vertex="1" parent="_f5LSM6xxXGirw2m_ek6-21">
          <mxGeometry x="178.57142857142858" y="376" width="196.42857142857144" height="94" as="geometry" />
        </mxCell>
      </root>
    </mxGraphModel>
  </diagram>
</mxfile>
